# xmcd CD database file
#
# Track frame offsets:
#	150
#	27671
#	41126
#	57923
#	75330
#	103364
#	120071
#	133707
#	150790
#	186910
#	205609
#	222499
#	249526
#	273622
#
# Disc length: 4055 seconds
#
# Revision: 2
# Processed by: cddbd v1.4PL0 Copyright (c) Steve Scherf et al.
# Submitted via: CDex 1.50
#
DISCID=c20fd50e
DTITLE=Various Artist - the jazz bar
DYEAR=1900
DGENRE=Jazz
TTITLE0=Ella Fitzgerald - Fine and Mellow
TTITLE1=Charlie Byrd Trio - I left my heart in San Francisco
TTITLE2=Zoot Sims - Someone to watch over me
TTITLE3=Betty Roche - Come rain or come shine
TTITLE4=Phineas Newborn jr. - Little girl blue
TTITLE5=Joe Pass - Nice work if you can get it
TTITLE6=Walter Wanderley - How insensitive
TTITLE7=Arne Domnerus - Somewhere over the rainbow
TTITLE8=Kenny Burell - Just squeeze me
TTITLE9=Chet Baker - How long has this been going on?
TTITLE10=Wes Montgomery - Stairway to the Stars (take 2)
TTITLE11=Harry "sweets" Edison - Ain't Misbehavin'
TTITLE12=Keystone Trio and Freddy Cole - It had to be you
TTITLE13=Benny Carter and Oscar Peterson - Sweet Lorraine
EXTD=
EXTT0=
EXTT1=
EXTT2=
EXTT3=
EXTT4=
EXTT5=
EXTT6=
EXTT7=
EXTT8=
EXTT9=
EXTT10=
EXTT11=
EXTT12=
EXTT13=
PLAYORDER=
